<svg xmlns="http://www.w3.org/2000/svg" viewBox="0 0 184.25 76.04"><defs><style>.cls-1{fill:#fff;}</style></defs><g id="Capa_2" data-name="Capa 2"><g id="Capa_1-2" data-name="Capa 1"><path class="cls-1" d="M84.18,30.89A6.18,6.18,0,0,1,78,24.71,24.73,24.73,0,0,1,102.71,0a6.17,6.17,0,1,1,0,12.34A12.37,12.37,0,0,0,90.35,24.71a6.18,6.18,0,0,1-6.17,6.18"/><path class="cls-1" d="M90.35,24.71H78V6.19a6.17,6.17,0,1,1,12.34,0Z"/><path class="cls-1" d="M56.88,24.7H69.22V43.22a6.17,6.17,0,1,1-12.34,0Z"/><path class="cls-1" d="M69.22,25.32H56.88V6.19a6.17,6.17,0,0,1,12.34,0Z"/><path class="cls-1" d="M20.19,1.33a6.21,6.21,0,0,1,9.53,2.49L47.39,40.55,36.27,45.9,24,20.42h0L18.44,8.87a6.19,6.19,0,0,1,1.75-7.54"/><path class="cls-1" d="M78,24.74H90.35V43.26a6.17,6.17,0,1,1-12.34,0Z"/><path class="cls-1" d="M159.6,49.59a24.65,24.65,0,1,1,24.65-24.65,6.17,6.17,0,1,1-12.34,0,12.31,12.31,0,1,0-4.36,9.39,6.17,6.17,0,0,1,8,9.42,24.69,24.69,0,0,1-15.93,5.84"/><path class="cls-1" d="M103,24.71h0a6.2,6.2,0,0,1,6.18-6.18H120a6.18,6.18,0,0,1,0,12.35H109.18A6.19,6.19,0,0,1,103,24.71"/><path class="cls-1" d="M178,18.76H159a6.18,6.18,0,1,0,0,12.35h19a6.18,6.18,0,1,0,0-12.35"/><path class="cls-1" d="M27.81,1.33a6.2,6.2,0,0,0-9.52,2.49L.61,40.55,11.73,45.9,24,20.42h0L29.56,8.87a6.17,6.17,0,0,0-1.75-7.54"/><path class="cls-1" d="M12.35,43.22a6.18,6.18,0,1,1-6.18-6.17,6.18,6.18,0,0,1,6.18,6.17Z"/><path class="cls-1" d="M48,43.22a6.17,6.17,0,1,1-6.17-6.17A6.18,6.18,0,0,1,48,43.22Z"/><path class="cls-1" d="M4.42,72.1a3,3,0,0,0,2.27-1l1.12,1a4.22,4.22,0,0,1-3.42,1.57,4.37,4.37,0,0,1-.21-8.73c2.66,0,4,2.09,4,4.52,0,.17,0,.33,0,.52H2a2.34,2.34,0,0,0,2.4,2.12m1.87-3.39a2.17,2.17,0,0,0-2.12-2.2A2.26,2.26,0,0,0,2,68.71Z"/><path class="cls-1" d="M12,73.48H10.12V65.12H12v1.3A3,3,0,0,1,14.64,65c1.89,0,3,1.26,3,3.21v5.32H15.7V68.73c0-1.3-.65-2-1.78-2A1.86,1.86,0,0,0,12,68.76Z"/><path class="cls-1" d="M23.79,72.1a3,3,0,0,0,2.26-1l1.13,1a4.24,4.24,0,0,1-3.42,1.57,4.37,4.37,0,0,1-.21-8.73c2.66,0,4,2.09,4,4.52a4.92,4.92,0,0,1,0,.52H21.38a2.34,2.34,0,0,0,2.41,2.12m1.87-3.39a2.18,2.18,0,0,0-2.12-2.2,2.25,2.25,0,0,0-2.17,2.2Z"/><path class="cls-1" d="M31.4,73.48H29.48V65.12H31.4V67a3,3,0,0,1,3-2v2h-.11c-1.68,0-2.85,1.09-2.85,3.3Z"/><path class="cls-1" d="M39.5,76a7.15,7.15,0,0,1-3.73-1l.71-1.44a5.36,5.36,0,0,0,3,.89,2.34,2.34,0,0,0,2.65-2.57v-.64a3.51,3.51,0,0,1-3,1.53,3.93,3.93,0,0,1,0-7.86,3.59,3.59,0,0,1,2.93,1.42V65.12H44v6.65c0,3-1.62,4.27-4.5,4.27m.16-9.48a2.26,2.26,0,0,0-2.37,2.31,2.29,2.29,0,0,0,2.37,2.33,2.32,2.32,0,1,0,0-4.64"/><path class="cls-1" d="M46.49,65.12h1.92v8.36H46.49Zm.13-1.06,1.68-2.6,1.74.78-1.93,1.82Z"/><path class="cls-1" d="M56,73.48v-1a3.38,3.38,0,0,1-2.71,1.2c-1.58,0-3-.9-3-2.58v0c0-1.81,1.44-2.69,3.39-2.69A6.93,6.93,0,0,1,56,68.7v-.21c0-1.16-.73-1.79-2.06-1.79a5.94,5.94,0,0,0-2.39.52l-.52-1.53a7.19,7.19,0,0,1,3.18-.7c2.47,0,3.67,1.3,3.67,3.53v5Zm0-3.55a5.47,5.47,0,0,0-1.92-.33c-1.2,0-1.91.49-1.91,1.34v0c0,.79.71,1.23,1.61,1.23,1.27,0,2.22-.71,2.22-1.76Z"/><path class="cls-1" d="M71.24,76V72.08a3.34,3.34,0,0,1-2.85,1.57,4,4,0,0,1-3.87-4.35c0-2.79,1.88-4.35,3.87-4.35a3.44,3.44,0,0,1,2.85,1.47v-1.3h1.92V76Zm-2.39-9.4a2.45,2.45,0,0,0-2.4,2.69A2.49,2.49,0,0,0,68.85,72a2.71,2.71,0,0,0,0-5.38"/><path class="cls-1" d="M81,65.12H83v8.35H81V72.18a3,3,0,0,1-2.61,1.47c-1.89,0-3-1.27-3-3.21V65.12h1.92v4.75c0,1.29.65,2,1.78,2A1.86,1.86,0,0,0,81,69.84Z"/><path class="cls-1" d="M89.22,72.1a3,3,0,0,0,2.26-1l1.13,1a4.25,4.25,0,0,1-3.42,1.57A4.37,4.37,0,0,1,89,64.94c2.66,0,4,2.09,4,4.52A4.81,4.81,0,0,1,93,70H86.81a2.34,2.34,0,0,0,2.41,2.12m1.87-3.39A2.18,2.18,0,0,0,89,66.51a2.25,2.25,0,0,0-2.17,2.2Z"/><path class="cls-1" d="M102,70.86a.91.91,0,0,0,1,1,2.58,2.58,0,0,0,1.19-.29v1.57a3.38,3.38,0,0,1-1.73.43,2.14,2.14,0,0,1-2.4-2.45v-4.4H99V65.12h1.07v-2.3H102v2.3h2.25v1.65H102Z"/><path class="cls-1" d="M108.06,73.48h-1.91V65.12h1.91V67a3,3,0,0,1,3-2v2h-.11c-1.68,0-2.85,1.09-2.85,3.3Z"/><path class="cls-1" d="M117.4,73.48v-1a3.38,3.38,0,0,1-2.71,1.2c-1.58,0-3-.9-3-2.58v0c0-1.81,1.44-2.69,3.38-2.69a7,7,0,0,1,2.32.35v-.21c0-1.16-.73-1.79-2.06-1.79a5.9,5.9,0,0,0-2.39.52l-.52-1.53a7.12,7.12,0,0,1,3.18-.7c2.47,0,3.67,1.3,3.67,3.53v5Zm0-3.55a5.47,5.47,0,0,0-1.92-.33c-1.2,0-1.91.49-1.91,1.34v0c0,.79.71,1.23,1.61,1.23,1.27,0,2.22-.71,2.22-1.76Z"/><path class="cls-1" d="M123.49,73.48h-1.91V65.12h1.91v1.3A3,3,0,0,1,126.1,65c1.88,0,3,1.26,3,3.21v5.32h-1.92V68.73c0-1.3-.65-2-1.79-2a1.86,1.86,0,0,0-1.88,2.07Z"/><path class="cls-1" d="M134.25,73.63a5.79,5.79,0,0,1-3.54-1.25l.85-1.29a4.67,4.67,0,0,0,2.74,1c.82,0,1.3-.34,1.3-.9v0c0-.65-.89-.87-1.87-1.17-1.24-.35-2.61-.86-2.61-2.45v0c0-1.59,1.31-2.55,3-2.55a5.72,5.72,0,0,1,3.07,1l-.76,1.36a4.82,4.82,0,0,0-2.35-.79c-.75,0-1.18.34-1.18.83v0c0,.6.91.85,1.89,1.17,1.22.38,2.59.93,2.59,2.44v0c0,1.75-1.36,2.62-3.1,2.62"/><path class="cls-1" d="M143.82,65.18v1.59h-2.18v6.71h-1.92V66.77h-1.06v-1.6h1.06v-.6c0-1.84.92-2.74,2.57-2.74a5.05,5.05,0,0,1,1.55.22v1.61a3.52,3.52,0,0,0-1.12-.2c-.73,0-1.11.39-1.11,1.26v.46Z"/><path class="cls-1" d="M149.06,73.67a4.33,4.33,0,0,1-4.43-4.34,4.46,4.46,0,1,1,4.43,4.34m0-7a2.52,2.52,0,0,0-2.52,2.68,2.59,2.59,0,0,0,2.55,2.7,2.51,2.51,0,0,0,2.53-2.67,2.59,2.59,0,0,0-2.56-2.71"/><path class="cls-1" d="M157.4,73.48h-1.92V65.12h1.92V67a3,3,0,0,1,3-2v2h-.11c-1.68,0-2.85,1.09-2.85,3.3Z"/><path class="cls-1" d="M171.8,65c1.82,0,2.93,1.15,2.93,3.19v5.34h-1.92V68.73c0-1.33-.61-2-1.69-2s-1.79.72-1.79,2.07v4.72h-1.91V68.71c0-1.3-.64-2-1.7-2s-1.78.79-1.78,2.09v4.7H162V65.12h1.92v1.27A3,3,0,0,1,166.48,65,2.62,2.62,0,0,1,169,66.42,3.39,3.39,0,0,1,171.8,65"/><path class="cls-1" d="M182.16,73.48v-1a3.37,3.37,0,0,1-2.7,1.2c-1.58,0-3-.9-3-2.58v0c0-1.81,1.44-2.69,3.39-2.69a6.93,6.93,0,0,1,2.31.35v-.21c0-1.16-.73-1.79-2.06-1.79a5.94,5.94,0,0,0-2.39.52l-.52-1.53a7.19,7.19,0,0,1,3.18-.7c2.47,0,3.67,1.3,3.67,3.53v5Zm.05-3.55a5.46,5.46,0,0,0-1.91-.33c-1.21,0-1.92.49-1.92,1.34v0c0,.79.71,1.23,1.62,1.23,1.26,0,2.21-.71,2.21-1.76Z"/></g></g></svg>