<svg xmlns="http://www.w3.org/2000/svg" viewBox="0 0 107.16 64.59"><defs><style>.cls-1{fill:#302d3d;}</style></defs><g id="Capa_2" data-name="Capa 2"><g id="Air_Conditioning" data-name="Air Conditioning"><path class="cls-1" d="M107.11,26.15,104.66,8.63A10.06,10.06,0,0,0,94.75,0H12.41a10,10,0,0,0-9.9,8.63L.06,26.14a5.47,5.47,0,0,0,5.41,6.25H101.7A5.48,5.48,0,0,0,107.11,26.15ZM64.73,2.24A3,3,0,0,1,62,4.09H45.19a3,3,0,0,1-2.76-1.85Zm-24.63,0a5.23,5.23,0,0,0,5.09,4.09H62a5.21,5.21,0,0,0,5.08-4.09H84.12L82.49,3.81A15.59,15.59,0,0,1,71.66,8.17H35.51A15.55,15.55,0,0,1,24.68,3.81L23,2.24ZM11.38,30.15l.34-2.27H44.13l.34,2.27ZM43.47,23.6a10.7,10.7,0,0,1,.34,2H12a10.7,10.7,0,0,1,.34-2Zm-30-2.24a5.51,5.51,0,0,1,4.27-2.06H38.14a5.51,5.51,0,0,1,4.27,2.06Zm48.46.72c-.4,1.07-.33,1-1.37,8.07H46.73c-.92-6.21-1-7.29-1.4-8.14a7.77,7.77,0,0,0-1.79-2.71H63.72A7.8,7.8,0,0,0,61.9,22.08ZM94.78,23.6a10.7,10.7,0,0,1,.34,2H63.45a10.7,10.7,0,0,1,.34-2ZM64.85,21.36a5.51,5.51,0,0,1,4.27-2.06H89.45a5.49,5.49,0,0,1,4.27,2.06Zm-2.06,8.79.34-2.27H95.45l.33,2.27Zm38.91,0H98.14l-1-6.48a7.76,7.76,0,0,0-7.63-6.61H17.71a7.75,7.75,0,0,0-7.22,5c-.39,1-.32.93-1.37,8H5.47a3.23,3.23,0,0,1-3.2-3.69L4.72,8.94a7.8,7.8,0,0,1,7.69-6.7h7.41l3.31,3.18a17.75,17.75,0,0,0,12.38,5H71.66A17.79,17.79,0,0,0,84,5.42l3.31-3.18h7.4a7.8,7.8,0,0,1,7.69,6.7l2.45,17.52A3.23,3.23,0,0,1,101.7,30.15Z"/><path class="cls-1" d="M56.2,23.6H51a1.12,1.12,0,1,0,0,2.24H56.2a1.12,1.12,0,1,0,0-2.24Z"/><path class="cls-1" d="M13.09,45.36a1.12,1.12,0,0,0,1.12-1.11V35.73a1.12,1.12,0,1,0-2.23,0v8.52A1.11,1.11,0,0,0,13.09,45.36Z"/><path class="cls-1" d="M25.55,34.61a1.12,1.12,0,0,0-1.12,1.12v9.05a1.12,1.12,0,0,0,2.24,0V35.73A1.12,1.12,0,0,0,25.55,34.61Z"/><path class="cls-1" d="M25.55,48.21a1.12,1.12,0,0,0-1.12,1.12v2.43a1.12,1.12,0,0,0,2.24,0V49.33A1.12,1.12,0,0,0,25.55,48.21Z"/><path class="cls-1" d="M12,49.73a1.12,1.12,0,0,0,2.23,0v-.8a1.12,1.12,0,1,0-2.23,0Z"/><path class="cls-1" d="M25.55,55.4a1.12,1.12,0,0,0-1.12,1.11v7a1.12,1.12,0,1,0,2.24,0v-7A1.12,1.12,0,0,0,25.55,55.4Z"/><path class="cls-1" d="M38,56.73a1.12,1.12,0,0,0-1.12,1.12v3.57a1.12,1.12,0,0,0,2.24,0V57.85A1.12,1.12,0,0,0,38,56.73Z"/><path class="cls-1" d="M31.78,34.61a1.12,1.12,0,0,0-1.12,1.12V47.17a1.12,1.12,0,0,0,2.24,0V35.73A1.12,1.12,0,0,0,31.78,34.61Z"/><path class="cls-1" d="M45.36,39.57V35.73a1.12,1.12,0,1,0-2.24,0v3.84a1.12,1.12,0,1,0,2.24,0Z"/><path class="cls-1" d="M19.32,47.41a1.12,1.12,0,0,0-1.12,1.12V58.86a3.5,3.5,0,1,1-3.49-3.5,1.12,1.12,0,0,0,0-2.24,5.74,5.74,0,1,0,5.73,5.74V48.53A1.12,1.12,0,0,0,19.32,47.41Z"/><path class="cls-1" d="M42.63,44.29a1.12,1.12,0,1,0,0,2.23,3.5,3.5,0,1,1-3.5,3.5V35.73a1.12,1.12,0,0,0-2.24,0V50a5.74,5.74,0,1,0,5.74-5.73Z"/><path class="cls-1" d="M19.32,43.13a1.12,1.12,0,0,0-1.12,1.12v.53a1.12,1.12,0,0,0,2.24,0v-.53A1.12,1.12,0,0,0,19.32,43.13Z"/><path class="cls-1" d="M19.32,38.87A1.12,1.12,0,0,0,18.2,40v.53a1.12,1.12,0,1,0,2.24,0V40A1.12,1.12,0,0,0,19.32,38.87Z"/><path class="cls-1" d="M19.32,34.61a1.12,1.12,0,0,0-1.12,1.12v.53a1.12,1.12,0,0,0,2.24,0v-.53A1.12,1.12,0,0,0,19.32,34.61Z"/><path class="cls-1" d="M31.78,61.7a1.12,1.12,0,0,0-1.12,1.11v.66a1.12,1.12,0,0,0,2.24,0v-.66A1.12,1.12,0,0,0,31.78,61.7Z"/><path class="cls-1" d="M31.78,56.4a1.12,1.12,0,0,0-1.12,1.12v.66a1.12,1.12,0,0,0,2.24,0v-.66A1.12,1.12,0,0,0,31.78,56.4Z"/><path class="cls-1" d="M31.78,51.1a1.12,1.12,0,0,0-1.12,1.12v.66a1.12,1.12,0,1,0,2.24,0v-.66A1.12,1.12,0,0,0,31.78,51.1Z"/><path class="cls-1" d="M94.91,45.36A1.11,1.11,0,0,0,96,44.25V35.73a1.12,1.12,0,1,0-2.23,0v8.52A1.12,1.12,0,0,0,94.91,45.36Z"/><path class="cls-1" d="M82.45,34.61a1.12,1.12,0,0,0-1.12,1.12v9.05a1.12,1.12,0,0,0,2.24,0V35.73A1.12,1.12,0,0,0,82.45,34.61Z"/><path class="cls-1" d="M82.45,48.21a1.12,1.12,0,0,0-1.12,1.12v2.43a1.12,1.12,0,0,0,2.24,0V49.33A1.12,1.12,0,0,0,82.45,48.21Z"/><path class="cls-1" d="M93.79,49.73a1.12,1.12,0,0,0,2.23,0v-.8a1.12,1.12,0,1,0-2.23,0Z"/><path class="cls-1" d="M82.45,55.4a1.12,1.12,0,0,0-1.12,1.11v7a1.12,1.12,0,0,0,2.24,0v-7A1.12,1.12,0,0,0,82.45,55.4Z"/><path class="cls-1" d="M70,56.73a1.12,1.12,0,0,0-1.12,1.12v3.57a1.12,1.12,0,0,0,2.24,0V57.85A1.12,1.12,0,0,0,70,56.73Z"/><path class="cls-1" d="M76.22,34.61a1.12,1.12,0,0,0-1.12,1.12V47.17a1.12,1.12,0,0,0,2.24,0V35.73A1.12,1.12,0,0,0,76.22,34.61Z"/><path class="cls-1" d="M64.88,39.57V35.73a1.12,1.12,0,0,0-2.24,0v3.84a1.12,1.12,0,0,0,2.24,0Z"/><path class="cls-1" d="M93.29,53.12a1.12,1.12,0,0,0,0,2.24,3.5,3.5,0,1,1-3.49,3.5V48.53a1.12,1.12,0,1,0-2.24,0V58.86a5.74,5.74,0,1,0,5.73-5.74Z"/><path class="cls-1" d="M70,34.61a1.12,1.12,0,0,0-1.12,1.12V50a3.5,3.5,0,1,1-3.5-3.5,1.12,1.12,0,1,0,0-2.23A5.73,5.73,0,1,0,71.11,50V35.73A1.12,1.12,0,0,0,70,34.61Z"/><path class="cls-1" d="M87.56,44.78a1.12,1.12,0,0,0,2.24,0v-.53a1.12,1.12,0,1,0-2.24,0Z"/><path class="cls-1" d="M87.56,40.52a1.12,1.12,0,1,0,2.24,0V40a1.12,1.12,0,0,0-2.24,0Z"/><path class="cls-1" d="M88.68,37.38a1.12,1.12,0,0,0,1.12-1.12v-.53a1.12,1.12,0,1,0-2.24,0v.53A1.12,1.12,0,0,0,88.68,37.38Z"/><path class="cls-1" d="M76.22,61.7a1.12,1.12,0,0,0-1.12,1.11v.66a1.12,1.12,0,0,0,2.24,0v-.66A1.12,1.12,0,0,0,76.22,61.7Z"/><path class="cls-1" d="M76.22,56.4a1.12,1.12,0,0,0-1.12,1.12v.66a1.12,1.12,0,0,0,2.24,0v-.66A1.12,1.12,0,0,0,76.22,56.4Z"/><path class="cls-1" d="M76.22,51.1a1.12,1.12,0,0,0-1.12,1.12v.66a1.12,1.12,0,1,0,2.24,0v-.66A1.12,1.12,0,0,0,76.22,51.1Z"/></g></g></svg>