<svg xmlns="http://www.w3.org/2000/svg" viewBox="0 0 112.02 112.13"><defs><style>.cls-1{fill:#302d3d;}</style></defs><g id="Capa_2" data-name="Capa 2"><g id="Air_Conditioning" data-name="Air Conditioning"><path id="Lamp_4" data-name="Lamp 4" class="cls-1" d="M56.27,25.92a28.69,28.69,0,0,0-3.19.18A28,28,0,0,0,28.47,50.34a29.23,29.23,0,0,0-.22,3.6,27.89,27.89,0,0,0,7.86,19.45,26.39,26.39,0,0,1,7.23,18.36v6.37h0v4.77h0v1.54a4.3,4.3,0,0,0,4.31,4.31h2.26a4.3,4.3,0,0,0,4.2,3.39h4.31a4.32,4.32,0,0,0,4.21-3.38h2.26a4.31,4.31,0,0,0,4.31-4.31V93.36h0V91.68A27.49,27.49,0,0,1,76.79,73,28,28,0,0,0,56.27,25.92ZM51.93,75.13,46.14,57.91a29.48,29.48,0,0,0,20.26,0L60.6,75.21a1,1,0,0,0-.06.34V92.27H52V75.47A1,1,0,0,0,51.93,75.13Zm-1,19.3H67v2.62H45.49V94.43ZM45.49,99.2H67v2.62H45.49ZM58.42,110H54.11a2.13,2.13,0,0,1-1.93-1.23h8.18A2.18,2.18,0,0,1,58.42,110Zm6.47-3.39H47.65a2.17,2.17,0,0,1-2.16-2.16V104H67v.46A2.15,2.15,0,0,1,64.89,106.59Zm10.32-35A29.66,29.66,0,0,0,67,91.68v.59H62.7V75.72l6.49-19.35a1.09,1.09,0,0,0-.3-1.14A1.07,1.07,0,0,0,67.73,55h0a27.47,27.47,0,0,1-22.9,0h0a1.05,1.05,0,0,0-1.52,1,1,1,0,0,0,.06.34h0l6.49,19.28V92.27H45.49v-.52A28.53,28.53,0,0,0,37.66,71.9a25.79,25.79,0,0,1-7.26-18,26.83,26.83,0,0,1,.21-3.33A25.9,25.9,0,0,1,53.32,28.24a26.8,26.8,0,0,1,3-.17A25.86,25.86,0,0,1,75.21,71.54Z"/><path class="cls-1" d="M29.82,34a1,1,0,0,0,0-1.47l-7.47-7.47a1.05,1.05,0,0,0-1.47,0,1,1,0,0,0,0,1.46L28.36,34A1,1,0,0,0,29.82,34Z"/><path class="cls-1" d="M15.58,19.74a1,1,0,0,0,0-1.46l-.43-.43a1,1,0,0,0-1.46,0,1,1,0,0,0,0,1.46l.43.43A1,1,0,0,0,15.58,19.74Z"/><path class="cls-1" d="M19,23.21a1,1,0,0,0,0-1.47l-.43-.43a1,1,0,0,0-1.46,1.47l.43.43A1,1,0,0,0,19,23.21Z"/><path class="cls-1" d="M35.52,28.11a1,1,0,0,0,0-1.46l-7.47-7.47a1,1,0,1,0-1.47,1.46l7.48,7.47A1,1,0,0,0,35.52,28.11Z"/><path class="cls-1" d="M21.28,13.87a1,1,0,0,0,0-1.46L20.85,12a1,1,0,0,0-1.47,1.46l.44.43A1,1,0,0,0,21.28,13.87Z"/><path class="cls-1" d="M24.74,17.33a1,1,0,0,0,0-1.46l-.43-.43a1,1,0,0,0-1.46,0,1,1,0,0,0,0,1.46l.43.43A1,1,0,0,0,24.74,17.33Z"/><path class="cls-1" d="M31.34,75.78a1.05,1.05,0,0,0-1.47,0L22.4,83.25a1,1,0,0,0,1.46,1.47l7.48-7.48A1,1,0,0,0,31.34,75.78Z"/><path class="cls-1" d="M20.56,86.56a1.05,1.05,0,0,0-1.47,0l-.43.43a1,1,0,0,0,0,1.46,1,1,0,0,0,1.46,0l.44-.43A1,1,0,0,0,20.56,86.56Z"/><path class="cls-1" d="M25.46,70.08a1,1,0,0,0-1.46,0l-7.47,7.47A1,1,0,1,0,18,79l7.47-7.48A1,1,0,0,0,25.46,70.08Z"/><path class="cls-1" d="M11.22,84.32a1,1,0,0,0-1.46,0l-.43.43a1,1,0,1,0,1.46,1.47l.43-.44A1,1,0,0,0,11.22,84.32Z"/><path class="cls-1" d="M14.68,80.86a1,1,0,0,0-1.46,0l-.43.43a1,1,0,0,0,0,1.46,1,1,0,0,0,1.46,0l.43-.43A1,1,0,0,0,14.68,80.86Z"/><path class="cls-1" d="M52.26,22.82a1,1,0,0,0,1-1V11.21a1,1,0,0,0-2.07,0V21.79A1,1,0,0,0,52.26,22.82Z"/><path class="cls-1" d="M52.26,2.68a1,1,0,0,0,1-1V1a1,1,0,0,0-2.07,0v.61A1,1,0,0,0,52.26,2.68Z"/><path class="cls-1" d="M52.26,7.57a1,1,0,0,0,1-1V5.93a1,1,0,0,0-2.07,0v.61A1,1,0,0,0,52.26,7.57Z"/><path class="cls-1" d="M60.28,22.82a1,1,0,0,0,1-1V11.21a1,1,0,0,0-2.07,0V21.79A1,1,0,0,0,60.28,22.82Z"/><path class="cls-1" d="M60.28,2.68a1,1,0,0,0,1-1V1a1,1,0,0,0-2.07,0v.61A1,1,0,0,0,60.28,2.68Z"/><path class="cls-1" d="M60.28,7.57a1,1,0,0,0,1-1V5.93a1,1,0,0,0-2.07,0v.61A1,1,0,0,0,60.28,7.57Z"/><path class="cls-1" d="M81.77,34a1,1,0,0,0,1.46,0l7.48-7.48a1,1,0,0,0-1.46-1.46l-7.48,7.47A1.05,1.05,0,0,0,81.77,34Z"/><path class="cls-1" d="M96,19.74a1,1,0,0,0,1.47,0l.43-.43a1,1,0,0,0,0-1.46,1.05,1.05,0,0,0-1.47,0l-.43.43A1,1,0,0,0,96,19.74Z"/><path class="cls-1" d="M92.55,23.21a1,1,0,0,0,1.46,0l.43-.43A1,1,0,1,0,93,21.31l-.43.43A1.05,1.05,0,0,0,92.55,23.21Z"/><path class="cls-1" d="M76.22,28.11a1,1,0,0,0,1.46,0l7.48-7.47a1,1,0,0,0-1.47-1.46l-7.47,7.47A1,1,0,0,0,76.22,28.11Z"/><path class="cls-1" d="M90.46,13.87a1,1,0,0,0,1.46,0l.43-.43A1,1,0,1,0,90.89,12l-.43.43A1,1,0,0,0,90.46,13.87Z"/><path class="cls-1" d="M87,17.33a1,1,0,0,0,1.46,0l.43-.43a1,1,0,0,0,0-1.46,1,1,0,0,0-1.46,0l-.43.43A1,1,0,0,0,87,17.33Z"/><path class="cls-1" d="M78.19,77.76a1.05,1.05,0,0,0,0,1.47l7.48,7.47a1,1,0,1,0,1.46-1.46l-7.48-7.48A1,1,0,0,0,78.19,77.76Z"/><path class="cls-1" d="M92.43,92a1,1,0,0,0,0,1.46l.43.43a1.05,1.05,0,0,0,1.47,0,1,1,0,0,0,0-1.46L93.89,92A1,1,0,0,0,92.43,92Z"/><path class="cls-1" d="M89,88.54A1.05,1.05,0,0,0,89,90l.43.43a1,1,0,0,0,1.46,0,1,1,0,0,0,0-1.46l-.43-.44A1,1,0,0,0,89,88.54Z"/><path class="cls-1" d="M84.06,72.21a1,1,0,0,0,0,1.46l7.48,7.48A1,1,0,1,0,93,79.69l-7.48-7.48A1,1,0,0,0,84.06,72.21Z"/><path class="cls-1" d="M98.31,86.45a1,1,0,0,0,0,1.47l.43.43a1,1,0,1,0,1.46-1.46l-.43-.44A1,1,0,0,0,98.31,86.45Z"/><path class="cls-1" d="M94.84,83a1,1,0,0,0,0,1.46l.43.43a1,1,0,1,0,1.47-1.46L96.3,83A1,1,0,0,0,94.84,83Z"/><path class="cls-1" d="M89,57.14a1,1,0,0,0,1,1h10.57a1,1,0,1,0,0-2.07H90A1,1,0,0,0,89,57.14Z"/><path class="cls-1" d="M109.12,57.14a1,1,0,0,0,1,1h.61a1,1,0,1,0,0-2.07h-.61A1,1,0,0,0,109.12,57.14Z"/><path class="cls-1" d="M104.22,57.14a1,1,0,0,0,1,1h.61a1,1,0,0,0,0-2.07h-.61A1,1,0,0,0,104.22,57.14Z"/><path class="cls-1" d="M89.2,49.06a1,1,0,0,0,1,1h10.57a1,1,0,0,0,0-2.06H90.24A1,1,0,0,0,89.2,49.06Z"/><path class="cls-1" d="M109.35,49.06a1,1,0,0,0,1,1H111A1,1,0,1,0,111,48h-.61A1,1,0,0,0,109.35,49.06Z"/><path class="cls-1" d="M104.45,49.06a1,1,0,0,0,1,1h.61a1,1,0,1,0,0-2.06h-.61A1,1,0,0,0,104.45,49.06Z"/><path class="cls-1" d="M23.05,50.09a1,1,0,0,0-1-1H11.44a1,1,0,0,0,0,2.07H22A1,1,0,0,0,23.05,50.09Z"/><path class="cls-1" d="M2.9,50.09a1,1,0,0,0-1-1H1.26a1,1,0,0,0,0,2.07h.61A1,1,0,0,0,2.9,50.09Z"/><path class="cls-1" d="M7.8,50.09a1,1,0,0,0-1-1H6.16a1,1,0,1,0,0,2.07h.61A1,1,0,0,0,7.8,50.09Z"/><path class="cls-1" d="M22.82,58.17a1,1,0,0,0-1-1H11.21a1,1,0,0,0,0,2.07H21.79A1,1,0,0,0,22.82,58.17Z"/><path class="cls-1" d="M2.68,58.17a1,1,0,0,0-1-1H1a1,1,0,0,0,0,2.07h.61A1,1,0,0,0,2.68,58.17Z"/><path class="cls-1" d="M7.57,58.17a1,1,0,0,0-1-1H5.93a1,1,0,0,0,0,2.07h.61A1,1,0,0,0,7.57,58.17Z"/></g></g></svg>