<svg xmlns="http://www.w3.org/2000/svg" viewBox="0 0 95.35 89.52"><defs><style>.cls-1{fill:#302d3d;}.cls-2{fill:#dddede;}</style></defs><g id="Capa_2" data-name="Capa 2"><g id="Laptop_macbook_pro" data-name="Laptop macbook pro"><path class="cls-1" d="M89.44,89.52H5.92A5.92,5.92,0,0,1,0,83.6C0,81,0,80.86.19,80.33a1,1,0,0,1,1.87.15A1.78,1.78,0,0,0,3.8,81.8H91.56a1.79,1.79,0,0,0,1.72-1.32c.29-1.08,2.07-1.08,2.07.68V83.6A5.92,5.92,0,0,1,89.44,89.52ZM2,83.35a3.93,3.93,0,0,0,3.91,4.17H89.44a3.94,3.94,0,0,0,3.91-4.17,3.77,3.77,0,0,1-1.79.45H3.8A3.77,3.77,0,0,1,2,83.35Z"/><path class="cls-1" d="M82,53H13.34a3.88,3.88,0,0,1-3.88-3.88V3.88A3.88,3.88,0,0,1,13.34,0H82a3.88,3.88,0,0,1,3.87,3.88V49.13A3.88,3.88,0,0,1,82,53ZM13.34,2a1.88,1.88,0,0,0-1.88,1.88V49.13A1.88,1.88,0,0,0,13.34,51H82a1.88,1.88,0,0,0,1.87-1.88V3.88A1.88,1.88,0,0,0,82,2Z"/><path class="cls-1" d="M81.6,48.49H13.75a1,1,0,0,1-1-1V4.3a1,1,0,0,1,1-1H81.6a1,1,0,0,1,1,1V47.49A1,1,0,0,1,81.6,48.49Zm-66.85-2H80.6V5.3H14.75Z"/><path class="cls-1" d="M91.56,83.8H3.8A3.79,3.79,0,0,1,.26,78.63l10-25.23A3.81,3.81,0,0,1,13.75,51H25.66a1,1,0,0,1,.92,1.39L25.92,54H69.43l-.65-1.55A1,1,0,0,1,69.7,51H81.6a3.78,3.78,0,0,1,3.52,2.39c10.67,27,9.89,25.13,10,25.23A3.78,3.78,0,0,1,91.56,83.8ZM13.75,53a1.78,1.78,0,0,0-1.66,1.13l-10,25.22A1.78,1.78,0,0,0,3.8,81.8H91.56a1.78,1.78,0,0,0,1.65-2.45L83.26,54.14A1.78,1.78,0,0,0,81.6,53H71.21l.66,1.55A1,1,0,0,1,71,56H24.41a1,1,0,0,1-.92-1.39L24.15,53ZM53.87,80.73H41.48a1.69,1.69,0,0,1-1.69-1.86c0-.11,0,0,.49-4.78A1.71,1.71,0,0,1,42,72.57H53.38a1.7,1.7,0,0,1,1.68,1.51l.49,4.79A1.67,1.67,0,0,1,53.87,80.73Zm-.31-1.65h0Zm-11.74-.35H53.53l-.43-4.16H42.24Zm39.09-6.52H14.45a2.85,2.85,0,0,1-2.65-3.9l3.73-9.46a2.83,2.83,0,0,1,2.65-1.8h59a2.85,2.85,0,0,1,2.65,1.8l3.74,9.46A2.86,2.86,0,0,1,80.91,72.21ZM13.66,69.05a.85.85,0,0,0,.79,1.16H80.91a.85.85,0,0,0,.79-1.16L78,59.59a.87.87,0,0,0-.79-.54h-59a.85.85,0,0,0-.79.54Z"/><path class="cls-1" d="M53.87,80.73H41.48a1.69,1.69,0,0,1-1.69-1.86l.49-4.78A1.71,1.71,0,0,1,42,72.57H53.38a1.7,1.7,0,0,1,1.68,1.51c0,.1,0,.22.49,4.79A1.67,1.67,0,0,1,53.87,80.73Zm-.31-1.65h0Zm-11.74-.35H53.53l-.43-4.16H42.24Zm11.56-4.16h0Z"/><path class="cls-1" d="M71,56H24.41a1,1,0,0,1-.92-1.39l1.25-2.94a1,1,0,0,1,.92-.61h44a1,1,0,0,1,.92.61l1.25,2.94A1,1,0,0,1,71,56Zm-45-2H69.43L69,53H26.32Z"/><path class="cls-1" d="M80.91,72.21H14.45a2.85,2.85,0,0,1-2.65-3.9l3.73-9.46a2.83,2.83,0,0,1,2.65-1.8h59a2.85,2.85,0,0,1,2.65,1.8l3.74,9.46A2.86,2.86,0,0,1,80.91,72.21ZM18.18,59.05a.85.85,0,0,0-.79.54l-3.73,9.46a.85.85,0,0,0,.79,1.16H80.91a.85.85,0,0,0,.79-1.16L78,59.59a.87.87,0,0,0-.79-.54Z"/><path class="cls-1" d="M53.87,80.73H41.48a1.69,1.69,0,0,1-1.69-1.86l.49-4.78A1.71,1.71,0,0,1,42,72.57H53.38a1.7,1.7,0,0,1,1.68,1.51l.49,4.78A1.68,1.68,0,0,1,53.87,80.73Zm-.31-1.64Zm-11.74-.36H53.53l-.43-4.16H42.24Z"/><path class="cls-1" d="M76.24,53H19.12a1,1,0,0,1-1-1V47.49a1,1,0,0,1,1-1H76.24a1,1,0,0,1,1,1V52A1,1,0,0,1,76.24,53ZM20.12,51H75.24V48.49H20.12Z"/><path class="cls-1" d="M71,56H24.41a1,1,0,0,1-.92-1.39l1.25-2.94a1,1,0,0,1,.92-.61h44a1,1,0,0,1,.92.61l1.25,2.94A1,1,0,0,1,71,56Zm-45-2H69.43L69,53H26.32Z"/><polygon class="cls-2" points="60.37 82.8 56.35 85.9 39 85.9 34.99 82.8 60.37 82.8"/><path class="cls-1" d="M56.35,86.9c-18.92,0-17.58.09-18-.21l-4-3.1A1,1,0,0,1,35,81.8H60.37A1,1,0,0,1,61,83.59C56.46,87.08,56.8,86.9,56.35,86.9Zm-17-2H56l1.42-1.1H37.91Z"/><path class="cls-1" d="M77,69H18.33a1,1,0,0,1-.95-1.31l2.32-6.93a1,1,0,0,1,.94-.69H74.7a1,1,0,0,1,1,.69L78,67.67A1,1,0,0,1,77,69Zm-57.3-2H75.63L74,62.05H21.37Z"/><path class="cls-1" d="M69.93,69H25.42a1,1,0,0,1-1-1.24l1.76-6.93a1,1,0,0,1,1-.76h41a1,1,0,0,1,1,.76l1.76,6.93A1,1,0,0,1,69.93,69ZM26.71,67H68.64l-1.25-4.93H28Z"/><path class="cls-1" d="M62.77,69H32.58a1,1,0,0,1-1-1.17l1.19-6.93a1,1,0,0,1,1-.83H61.57a1,1,0,0,1,1,.83l1.19,6.93A1,1,0,0,1,62.77,69Zm-29-2H61.58l-.85-4.93H34.62Z"/><path class="cls-1" d="M56.59,69H38.76a1,1,0,0,1-1-1.1l.7-6.93a1,1,0,0,1,1-.9H55.88a1,1,0,0,1,1,.9l.7,6.93A1,1,0,0,1,56.59,69ZM39.87,67H55.48L55,62.05H40.37Z"/><path class="cls-1" d="M51.18,69h-7a1,1,0,0,1-1-1L43.44,61a1,1,0,0,1,1-1h6.47a1,1,0,0,1,1,1l.27,6.93A1,1,0,0,1,51.18,69Zm-6-2h4.93L50,62.05H45.4Z"/><path class="cls-1" d="M59,72.21H36.38a1,1,0,0,1-1-1.12l.39-3.23a1,1,0,0,1,1-.88H58.58a1,1,0,0,1,1,.88l.4,3.23A1,1,0,0,1,59,72.21Zm-21.48-2H57.85L57.69,69h-20Z"/><path class="cls-1" d="M81,65.63H14.33a1,1,0,1,1,0-2H81a1,1,0,1,1,0,2Z"/><path class="cls-1" d="M82.35,69H13a1,1,0,0,1,0-2H82.35a1,1,0,0,1,0,2Z"/><path class="cls-1" d="M80.91,72.21H14.45a2.85,2.85,0,0,1-2.65-3.9l3.73-9.46a2.83,2.83,0,0,1,2.65-1.8h59a2.85,2.85,0,0,1,2.65,1.8l3.74,9.46A2.86,2.86,0,0,1,80.91,72.21ZM18.18,59.05a.85.85,0,0,0-.79.54l-3.73,9.46a.85.85,0,0,0,.79,1.16H80.91a.85.85,0,0,0,.79-1.16L78,59.59a.87.87,0,0,0-.79-.54Z"/><path class="cls-1" d="M79.38,62.05H15.9a1,1,0,0,1,0-2H79.38a1,1,0,0,1,0,2Z"/></g></g></svg>