<svg xmlns="http://www.w3.org/2000/svg" viewBox="0 0 96 60.63"><defs><style>.cls-1{fill:#302d3d;}</style></defs><g id="Capa_2" data-name="Capa 2"><g id="Microwave"><path class="cls-1" d="M63.63,7.56A3.56,3.56,0,0,0,60.07,4L7.56,4.06A3.57,3.57,0,0,0,4,7.63L4,48.44A3.57,3.57,0,0,0,7.6,52H60.1a3.55,3.55,0,0,0,3.56-3.57C63.65,33.74,63.69,76.75,63.63,7.56Zm-2,27.27-2.59-1.24a1.43,1.43,0,0,1-.81-1.29V23.7a1.44,1.44,0,0,1,.81-1.29l2.58-1.23ZM60.1,50H7.6A1.56,1.56,0,0,1,6,48.44L6,7.62A1.56,1.56,0,0,1,7.56,6.06L60.06,6a1.56,1.56,0,0,1,1.57,1.56V19L58.2,20.61a3.45,3.45,0,0,0-2,3.09v8.6a3.46,3.46,0,0,0,2,3.1L61.65,37v11.4A1.55,1.55,0,0,1,60.1,50Z"/><path class="cls-1" d="M90.94,0H5.06A5.07,5.07,0,0,0,0,5.06V50.94a5.07,5.07,0,0,0,4,4.94v3.74a1,1,0,0,0,1,1H91a1,1,0,0,0,1-1V55.88a5.07,5.07,0,0,0,4-4.94V5.06A5.07,5.07,0,0,0,90.94,0ZM2,50.94V5.06A3.06,3.06,0,0,1,5.06,2H67.68a5,5,0,0,0-1.06,3.06V50.94A5,5,0,0,0,67.68,54H5.06A3.06,3.06,0,0,1,2,50.94Zm88,7.68H6V56H90Zm4-7.68A3.06,3.06,0,0,1,90.94,54H71.69a3.07,3.07,0,0,1-3.07-3.06V5.06A3.07,3.07,0,0,1,71.69,2H90.94A3.06,3.06,0,0,1,94,5.06Z"/><path class="cls-1" d="M90.94,4,71.62,4a1,1,0,0,0-1,1l.07,23a1,1,0,0,0,1,1c20.64,0,19.36.06,19.76-.14A1,1,0,0,0,92,28L91.94,5A1,1,0,0,0,90.94,4ZM72.68,27,72.63,6,89.94,6,90,27Z"/><path class="cls-1" d="M88.19,15.49H74.44a1,1,0,0,0,0,2H88.19a1,1,0,1,0,0-2Z"/><path class="cls-1" d="M84.36,19.23c-.71-.89-1.4-.15-2.16.61l-3,3-2.56-2.57a1,1,0,0,0-1.41,0,1,1,0,0,0,0,1.42l3.26,3.27a1,1,0,0,0,1.42,0l3.63-3.64c.33.34.78.77,1.37,1.36a1,1,0,0,0,1.4-1.43Z"/><path class="cls-1" d="M78.93,13.9a2.58,2.58,0,0,0,2.57-2.57V10a2.57,2.57,0,0,0-5.14,0v1.32A2.58,2.58,0,0,0,78.93,13.9ZM78.36,10a.56.56,0,0,1,.57-.56.57.57,0,0,1,.57.56v1.32a.58.58,0,0,1-.57.57.57.57,0,0,1-.57-.57Z"/><path class="cls-1" d="M83.27,9.44V12.9a1,1,0,1,0,2,0V8.45a1,1,0,0,0-1-1h-.88a1,1,0,0,0-.12,2Z"/><path class="cls-1" d="M89.09,35.94,87.5,34.35a1.84,1.84,0,0,0-2.23-.29,9,9,0,0,0-12,12,1.84,1.84,0,0,0,.29,2.23l1.6,1.59h0a1.82,1.82,0,0,0,2.22.29,9,9,0,0,0,12-12A1.83,1.83,0,0,0,89.09,35.94Zm-3.58.6a7,7,0,0,1,1.39,1.38l-1.24,1.24-1.39-1.38Zm-10.78,8a7,7,0,0,1,9-8.94Zm2.38,3.22a6.94,6.94,0,0,1-1.38-1.38l7.13-7.14,1.38,1.39Zm1.84,1,8.94-8.94A7,7,0,0,1,79,48.7Z"/></g></g></svg>