<svg xmlns="http://www.w3.org/2000/svg" viewBox="0 0 72.5 96"><defs><style>.cls-1{fill:#302d3d;}</style></defs><g id="Capa_2" data-name="Capa 2"><g id="Laundry_washing_machine" data-name="Laundry washing machine"><path class="cls-1" d="M71.5,16.93H1a1,1,0,0,1-1-1V5A5,5,0,0,1,5,0H67.54a5,5,0,0,1,5,5v11A1,1,0,0,1,71.5,16.93ZM2,14.93H70.5V5a3,3,0,0,0-3-3H5A3,3,0,0,0,2,5Z"/><path class="cls-1" d="M30.1,16.93H1a1,1,0,0,1-1-1V5A5,5,0,0,1,5,0H30.1a1,1,0,0,1,1,1V15.93A1,1,0,0,1,30.1,16.93ZM2,14.93H29.1V2H5A3,3,0,0,0,2,5Z"/><path class="cls-1" d="M69,82.22H3.49A3.5,3.5,0,0,1,0,78.73V15.93a1,1,0,0,1,1-1H71.5a1,1,0,0,1,1,1v62.8A3.5,3.5,0,0,1,69,82.22ZM2,16.93v61.8a1.49,1.49,0,0,0,1.49,1.49H69a1.49,1.49,0,0,0,1.49-1.49V16.93Z"/><path class="cls-1" d="M68.77,92.19h-65A3.73,3.73,0,0,1,0,88.46V84a3.73,3.73,0,0,1,3.73-3.73h65A3.73,3.73,0,0,1,72.5,84v4.51A3.73,3.73,0,0,1,68.77,92.19Zm-65-10A1.73,1.73,0,0,0,2,84v4.51a1.73,1.73,0,0,0,1.73,1.73h65a1.73,1.73,0,0,0,1.73-1.73V84a1.73,1.73,0,0,0-1.73-1.73Z"/><path class="cls-1" d="M67.58,96H4.92a1,1,0,0,1-1-1V91.21a1,1,0,0,1,1-1H67.58a1,1,0,0,1,1,1V95A1,1,0,0,1,67.58,96ZM5.92,94H66.58V92.21H5.92Z"/><path class="cls-1" d="M36.25,74.59c-14.2,0-25.74-12.2-25.74-27.2s11.54-27.2,25.74-27.2S62,32.39,62,47.39,50.44,74.59,36.25,74.59Zm0-52.4c-13.09,0-23.74,11.31-23.74,25.2s10.65,25.2,23.74,25.2S60,61.29,60,47.39,49.34,22.19,36.25,22.19Z"/><path class="cls-1" d="M36.25,68.38c-11,0-19.88-9.42-19.88-21s8.92-21,19.88-21A19.69,19.69,0,0,1,53.88,37.68a1,1,0,0,1,0,.79c-.19.52-.36.49-3.12,1.72a3.24,3.24,0,0,0-1.84,3v8.45a3.24,3.24,0,0,0,1.84,3h0l2.59,1.15a1,1,0,0,1,.49,1.36A19.69,19.69,0,0,1,36.25,68.38Zm0-40c-9.86,0-17.88,8.52-17.88,19s8,19,17.88,19A17.61,17.61,0,0,0,51.6,57.14L50,56.42a5.21,5.21,0,0,1-3-4.8V43.17a5.26,5.26,0,0,1,3-4.81l1.62-.72A17.61,17.61,0,0,0,36.25,28.4Z"/><path class="cls-1" d="M36.25,53.9a6.51,6.51,0,1,1,6.2-6.51A6.37,6.37,0,0,1,36.25,53.9Zm0-11a4.52,4.52,0,1,0,4.2,4.5A4.36,4.36,0,0,0,36.25,42.89Z"/><path class="cls-1" d="M54.38,51.61a1,1,0,0,1-1-1V44.17a1,1,0,0,1,2,0v6.44A1,1,0,0,1,54.38,51.61Z"/><path class="cls-1" d="M62.64,12.38a3.83,3.83,0,0,1-3.75-3.91,3.75,3.75,0,1,1,7.5,0A3.83,3.83,0,0,1,62.64,12.38Zm0-5.83a1.84,1.84,0,0,0-1.75,1.92,1.76,1.76,0,1,0,3.5,0A1.84,1.84,0,0,0,62.64,6.55Z"/><path class="cls-1" d="M50.64,12.38a3.83,3.83,0,0,1-3.75-3.91,3.75,3.75,0,1,1,7.5,0A3.83,3.83,0,0,1,50.64,12.38Zm0-5.83a1.84,1.84,0,0,0-1.75,1.92,1.76,1.76,0,1,0,3.5,0A1.84,1.84,0,0,0,50.64,6.55Z"/><path class="cls-1" d="M38.64,12.38a3.84,3.84,0,0,1-3.76-3.91,3.76,3.76,0,1,1,7.51,0A3.83,3.83,0,0,1,38.64,12.38Zm0-5.83a1.85,1.85,0,0,0-1.76,1.92,1.76,1.76,0,1,0,3.51,0A1.85,1.85,0,0,0,38.64,6.55Z"/><path class="cls-1" d="M23.52,12.38H8a2.17,2.17,0,0,1-2.17-2.16V6.72A2.17,2.17,0,0,1,8,4.55H23.52a2.17,2.17,0,0,1,2.16,2.17v3.5A2.16,2.16,0,0,1,23.52,12.38ZM8,6.55a.17.17,0,0,0-.17.17v3.5c0,.26-.74.16,15.69.16a.16.16,0,0,0,.16-.16V6.72C23.68,6.46,24.42,6.55,8,6.55Z"/><path class="cls-1" d="M22.73,88.5A1,1,0,0,1,22,86.81l2.44-2.58A1,1,0,0,1,25.9,85.6l-2.44,2.58A1,1,0,0,1,22.73,88.5Z"/><path class="cls-1" d="M27.65,88.5a1,1,0,0,1-.72-1.69l2.44-2.58a1,1,0,0,1,1.45,1.37l-2.44,2.58A1,1,0,0,1,27.65,88.5Z"/><path class="cls-1" d="M32.57,88.5a1,1,0,0,1-.73-1.69l2.44-2.58a1,1,0,0,1,1.46,1.37L33.3,88.18A1,1,0,0,1,32.57,88.5Z"/><path class="cls-1" d="M37.49,88.5a1,1,0,0,1-.73-1.69l2.44-2.58a1,1,0,0,1,1.46,1.37l-2.45,2.58A1,1,0,0,1,37.49,88.5Z"/><path class="cls-1" d="M42.41,88.5a1,1,0,0,1-.73-1.69l2.44-2.58a1,1,0,1,1,1.45,1.37l-2.44,2.58A1,1,0,0,1,42.41,88.5Z"/><path class="cls-1" d="M47.32,88.5a1,1,0,0,1-.72-1.69L49,84.23a1,1,0,1,1,1.45,1.37l-2.44,2.58A1,1,0,0,1,47.32,88.5Z"/></g></g></svg>