<svg xmlns="http://www.w3.org/2000/svg" xmlns:xlink="http://www.w3.org/1999/xlink" viewBox="0 0 288.17 118.96"><defs><style>.cls-1{fill:none;}.cls-2{fill:#0067b2;}.cls-3{opacity:0.5;}.cls-4{clip-path:url(#clip-path);}.cls-5{fill:#00a291;}.cls-6{clip-path:url(#clip-path-2);}.cls-7{clip-path:url(#clip-path-3);}.cls-8{fill:#0096d6;}.cls-9{clip-path:url(#clip-path-4);}.cls-10{clip-path:url(#clip-path-5);}</style><clipPath id="clip-path"><rect class="cls-1" x="121.99" y="0.08" width="48.28" height="48.28"/></clipPath><clipPath id="clip-path-2"><rect class="cls-1" x="121.99" y="0.08" width="19.31" height="38.62"/></clipPath><clipPath id="clip-path-3"><rect class="cls-1" x="88.95" y="38.68" width="19.31" height="38.62"/></clipPath><clipPath id="clip-path-4"><rect class="cls-1" x="238.95" y="29.4" width="49.14" height="19.3"/></clipPath><clipPath id="clip-path-5"><rect class="cls-1" x="0.95" y="0.06" width="46.24" height="71.78"/></clipPath></defs><g id="Capa_2" data-name="Capa 2"><g id="Capa_1-2" data-name="Capa 1"><path class="cls-2" d="M6.91,112.8a4.73,4.73,0,0,0,3.54-1.56l1.76,1.56a6.59,6.59,0,0,1-5.35,2.45,6.52,6.52,0,0,1-6.7-6.8c0-3.76,2.65-6.83,6.38-6.83,4.16,0,6.26,3.26,6.26,7a8,8,0,0,1-.05.82H3.15a3.67,3.67,0,0,0,3.76,3.31m2.92-5.29c-.19-1.93-1.33-3.44-3.31-3.44-1.83,0-3.12,1.41-3.39,3.44Z"/><g class="cls-3"><g class="cls-4"><path class="cls-5" d="M131.64,48.36A9.65,9.65,0,0,1,122,38.7,38.67,38.67,0,0,1,160.61.08a9.66,9.66,0,0,1,0,19.31A19.34,19.34,0,0,0,141.29,38.7a9.65,9.65,0,0,1-9.65,9.66"/></g></g><g class="cls-3"><g class="cls-6"><path class="cls-5" d="M141.29,38.7H122v-29a9.65,9.65,0,0,1,19.3,0Z"/></g></g><g class="cls-3"><g class="cls-7"><path class="cls-5" d="M89,38.68h19.3v29a9.65,9.65,0,0,1-19.3,0Z"/></g></g><path class="cls-2" d="M108.25,38.7H89v-29a9.65,9.65,0,0,1,19.3,0Z"/><path class="cls-2" d="M31.58,2.14A9.7,9.7,0,0,1,46.47,6L74.12,63.46l-17.4,8.38L37.54,32l-8.7-18.07A9.66,9.66,0,0,1,31.58,2.14"/><path class="cls-5" d="M108.18,38.69A9.66,9.66,0,1,1,98.53,29a9.65,9.65,0,0,1,9.65,9.65"/><path class="cls-2" d="M122,38.74h19.3v29a9.65,9.65,0,1,1-19.3,0Z"/><path class="cls-2" d="M249.59,77.6a38.55,38.55,0,1,1,38.54-38.55,9.65,9.65,0,1,1-19.3,0A19.23,19.23,0,1,0,262,53.74,9.65,9.65,0,0,1,274.5,68.47a38.63,38.63,0,0,1-24.91,9.13"/><path class="cls-2" d="M161.07,38.69h0A9.68,9.68,0,0,1,170.73,29h17a9.65,9.65,0,1,1,0,19.3h-17a9.68,9.68,0,0,1-9.66-9.65"/><path class="cls-8" d="M180.38,38.69A9.66,9.66,0,1,1,170.73,29a9.65,9.65,0,0,1,9.65,9.65"/><path class="cls-8" d="M258.6,61.09a9.66,9.66,0,1,1,9.65,9.65,9.65,9.65,0,0,1-9.65-9.65"/><g class="cls-3"><g class="cls-9"><path class="cls-5" d="M278.33,29.4H248.71a9.65,9.65,0,1,0,0,19.3h29.62a9.65,9.65,0,1,0,0-19.3"/></g></g><g class="cls-3"><g class="cls-10"><path class="cls-5" d="M43.49,2.14A9.7,9.7,0,0,0,28.6,6L1,63.46l17.4,8.38L37.53,32l8.7-18.07A9.66,9.66,0,0,0,43.49,2.14"/></g></g><path class="cls-5" d="M19.31,67.65A9.66,9.66,0,1,1,9.65,58a9.66,9.66,0,0,1,9.66,9.65Z"/><path class="cls-8" d="M75.07,67.65A9.66,9.66,0,1,1,65.42,58a9.65,9.65,0,0,1,9.65,9.65Z"/><path class="cls-8" d="M47.21,9.67A9.67,9.67,0,1,1,37.54,0a9.67,9.67,0,0,1,9.67,9.67"/><path class="cls-5" d="M122.06,38.69a9.66,9.66,0,1,1,9.65,9.65,9.65,9.65,0,0,1-9.65-9.65"/><path class="cls-5" d="M268.81,39.07a9.68,9.68,0,1,1,9.68,9.67,9.68,9.68,0,0,1-9.68-9.67"/><path class="cls-2" d="M18.82,115h-3V101.89h3v2a4.69,4.69,0,0,1,4.08-2.3c2.94,0,4.65,2,4.65,5V115h-3v-7.43c0-2-1-3.19-2.8-3.19s-2.94,1.21-2.94,3.24Z"/><path class="cls-2" d="M37.2,112.8a4.73,4.73,0,0,0,3.54-1.56l1.76,1.56a6.61,6.61,0,0,1-5.35,2.45,6.52,6.52,0,0,1-6.71-6.8c0-3.76,2.65-6.83,6.39-6.83,4.16,0,6.26,3.26,6.26,7a8,8,0,0,1-.05.82h-9.6a3.66,3.66,0,0,0,3.76,3.31m2.92-5.29c-.2-1.93-1.34-3.44-3.32-3.44-1.83,0-3.11,1.41-3.39,3.44Z"/><path class="cls-2" d="M49.1,115h-3V101.89h3v2.94a4.64,4.64,0,0,1,4.63-3.19v3.17h-.17c-2.63,0-4.46,1.71-4.46,5.17Z"/><path class="cls-2" d="M61.77,119a11.3,11.3,0,0,1-5.84-1.55L57,115.15a8.51,8.51,0,0,0,4.66,1.39c2.67,0,4.13-1.39,4.13-4v-1a5.47,5.47,0,0,1-4.6,2.4,6.15,6.15,0,0,1,0-12.3,5.66,5.66,0,0,1,4.58,2.22v-2h3v10.39c0,4.63-2.52,6.68-7,6.68M62,104.14a3.63,3.63,0,1,0,0,7.25,3.63,3.63,0,1,0,0-7.25"/><path class="cls-2" d="M72.71,101.89h3V115h-3Zm.2-1.66,2.62-4.06,2.72,1.21-3,2.85Z"/><path class="cls-2" d="M87.61,115v-1.61a5.32,5.32,0,0,1-4.24,1.88c-2.47,0-4.65-1.41-4.65-4v0c0-2.82,2.25-4.2,5.3-4.2a11,11,0,0,1,3.61.54v-.32c0-1.81-1.14-2.8-3.22-2.8a9.12,9.12,0,0,0-3.73.82l-.82-2.4a11.21,11.21,0,0,1,5-1.09c3.86,0,5.75,2,5.75,5.52V115Zm.07-5.55a8.73,8.73,0,0,0-3-.52c-1.88,0-3,.77-3,2.11v0c0,1.23,1.11,1.93,2.52,1.93,2,0,3.47-1.12,3.47-2.75Z"/><path class="cls-2" d="M111.41,118.92v-6.14a5.25,5.25,0,0,1-4.46,2.45c-3.06,0-6.06-2.45-6.06-6.81s3-6.8,6.06-6.8a5.41,5.41,0,0,1,4.46,2.3v-2h3v17Zm-3.74-14.7c-2,0-3.76,1.58-3.76,4.2s1.73,4.21,3.76,4.21a4.23,4.23,0,0,0,0-8.41"/><path class="cls-2" d="M126.73,101.89h3V115h-3v-2a4.74,4.74,0,0,1-4.09,2.3c-2.94,0-4.65-2-4.65-5v-8.31h3v7.42c0,2,1,3.2,2.8,3.2s3-1.22,3-3.25Z"/><path class="cls-2" d="M139.52,112.8a4.73,4.73,0,0,0,3.54-1.56l1.75,1.56a6.82,6.82,0,0,1-12.05-4.35c0-3.76,2.65-6.83,6.39-6.83,4.15,0,6.26,3.26,6.26,7,0,.27,0,.52,0,.82h-9.6a3.66,3.66,0,0,0,3.76,3.31m2.92-5.29c-.2-1.93-1.34-3.44-3.32-3.44s-3.12,1.41-3.39,3.44Z"/><path class="cls-2" d="M159.46,110.87a1.43,1.43,0,0,0,1.61,1.64,4,4,0,0,0,1.86-.45v2.45a5.29,5.29,0,0,1-2.7.67c-2.2,0-3.76-1-3.76-3.84v-6.88h-1.66v-2.57h1.66V98.3h3v3.59H163v2.57h-3.52Z"/><path class="cls-2" d="M169,115h-3V101.89h3v2.94a4.62,4.62,0,0,1,4.62-3.19v3.17h-.17c-2.62,0-4.45,1.71-4.45,5.17Z"/><path class="cls-2" d="M183.59,115v-1.61a5.31,5.31,0,0,1-4.24,1.88c-2.47,0-4.65-1.41-4.65-4v0c0-2.82,2.25-4.2,5.3-4.2a11,11,0,0,1,3.61.54v-.32c0-1.81-1.14-2.8-3.22-2.8a9.12,9.12,0,0,0-3.73.82l-.82-2.4a11.27,11.27,0,0,1,5-1.09c3.87,0,5.75,2,5.75,5.52V115Zm.07-5.55a8.72,8.72,0,0,0-3-.52c-1.88,0-3,.77-3,2.11v0c0,1.23,1.12,1.93,2.53,1.93,2,0,3.46-1.12,3.46-2.75Z"/><path class="cls-2" d="M193.11,115h-3V101.89h3v2a4.7,4.7,0,0,1,4.09-2.3c2.94,0,4.65,2,4.65,5V115h-3v-7.43c0-2-1-3.19-2.79-3.19a2.91,2.91,0,0,0-2.95,3.24Z"/><path class="cls-2" d="M209.94,115.2a9.13,9.13,0,0,1-5.54-2l1.33-2a7.37,7.37,0,0,0,4.28,1.61c1.29,0,2-.55,2-1.41v0c0-1-1.38-1.36-2.92-1.83-1.93-.55-4.08-1.34-4.08-3.84v0c0-2.47,2.05-4,4.65-4a9.07,9.07,0,0,1,4.8,1.48l-1.18,2.13a7.59,7.59,0,0,0-3.69-1.24c-1.17,0-1.83.55-1.83,1.31v.05c0,.94,1.41,1.34,2.94,1.84,1.91.59,4.06,1.45,4.06,3.81v0c0,2.74-2.13,4.1-4.85,4.1"/><path class="cls-2" d="M224.91,102v2.47h-3.42V115h-3v-10.5h-1.66V102h1.66V101c0-2.87,1.44-4.28,4-4.28a7.86,7.86,0,0,1,2.42.35v2.52a5.17,5.17,0,0,0-1.75-.32c-1.14,0-1.74.62-1.74,2V102Z"/><path class="cls-2" d="M233.1,115.25a6.76,6.76,0,0,1-6.93-6.78,7,7,0,1,1,6.93,6.78m0-11a3.92,3.92,0,0,0-3.93,4.18,4,4,0,0,0,4,4.23,3.93,3.93,0,0,0,4-4.18,4,4,0,0,0-4-4.23"/><path class="cls-2" d="M246.14,115h-3V101.89h3v2.94a4.64,4.64,0,0,1,4.63-3.19v3.17h-.18c-2.62,0-4.45,1.71-4.45,5.17Z"/><path class="cls-2" d="M268.66,101.62c2.85,0,4.58,1.8,4.58,5V115h-3v-7.43c0-2.08-1-3.19-2.64-3.19s-2.8,1.14-2.8,3.24V115h-3v-7.45c0-2-1-3.17-2.64-3.17s-2.8,1.24-2.8,3.27V115h-3V101.89h3v2a4.68,4.68,0,0,1,4-2.25,4.11,4.11,0,0,1,3.89,2.3,5.32,5.32,0,0,1,4.43-2.3"/><path class="cls-2" d="M284.87,115v-1.61a5.32,5.32,0,0,1-4.24,1.88c-2.47,0-4.65-1.41-4.65-4v0c0-2.82,2.25-4.2,5.3-4.2a11,11,0,0,1,3.61.54v-.32c0-1.81-1.14-2.8-3.22-2.8a9.12,9.12,0,0,0-3.73.82l-.82-2.4a11.24,11.24,0,0,1,5-1.09c3.86,0,5.75,2,5.75,5.52V115Zm.07-5.55a8.72,8.72,0,0,0-3-.52c-1.89,0-3,.77-3,2.11v0c0,1.23,1.11,1.93,2.52,1.93,2,0,3.47-1.12,3.47-2.75Z"/></g></g></svg>