<svg xmlns="http://www.w3.org/2000/svg" viewBox="0 0 79.18 95.98"><defs><style>.cls-1{fill:#302d3d;}</style></defs><g id="Capa_2" data-name="Capa 2"><g id="Refrigrator_freezer_double_door" data-name="Refrigrator freezer double door"><path class="cls-1" d="M76.63,0H54a2.53,2.53,0,0,0-1.55.54A2.52,2.52,0,0,0,50.9,0H28.28a2.53,2.53,0,0,0-1.55.54A2.55,2.55,0,0,0,25.18,0H2.55A2.55,2.55,0,0,0,0,2.55v77.7a2.51,2.51,0,0,0,.55,1.56A2.56,2.56,0,0,0,0,83.38V95a1,1,0,0,0,1,1H7.49a1,1,0,0,0,1-1V92.33H45V95a1,1,0,0,0,1,1h6.49a1,1,0,0,0,1-1c0-12.71,0-11.75-.1-12.27.52.14-1.41.09,23.27.09a2.55,2.55,0,0,0,2.55-2.55V2.55A2.55,2.55,0,0,0,76.63,0ZM2,90.33V89.26H51.46v1.07Zm0-4.45H51.46v1.38H2Zm49.46-2H2v-.5a.58.58,0,0,1,.58-.58h48.3a.58.58,0,0,1,.58.58ZM41,77.23a1.91,1.91,0,1,1,1.9-1.9A1.9,1.9,0,0,1,41,77.23Zm-3.64-.49a1.9,1.9,0,1,1,0-2.84A3.82,3.82,0,0,0,37.39,76.74ZM41,71.42a3.92,3.92,0,0,0-2.45.86,3.89,3.89,0,0,0-5.83,5H31.3V69.32H47.89v7.91H44.41A3.88,3.88,0,0,0,41,71.42Zm1-47.84a3.19,3.19,0,0,1,3.36,2.47H39.16A3.22,3.22,0,0,1,42.05,23.58Zm-4.92,2.47H34.82a3.21,3.21,0,0,1,3.36-2.47A4.94,4.94,0,0,0,37.13,26.05Zm10.76,2v1.79H31.3V28.05ZM34.75,42a.65.65,0,0,1,.65-.64H42a.65.65,0,1,1,0,1.29H35.4A.65.65,0,0,1,34.75,42Zm1.77-3.29a.64.64,0,0,1,.64-.64h6.63a.65.65,0,0,1,0,1.29H37.16A.65.65,0,0,1,36.52,38.67Zm11.37,5.94V46.4H31.3V44.61ZM31.3,65.53H47.89v1.79H31.3Zm5.69-2H34.34V59.59H37ZM43.68,56A1.33,1.33,0,0,1,45,57.3v6.23H42.36V57.3A1.32,1.32,0,0,1,43.68,56ZM47,63.53V57.3a3.33,3.33,0,0,0-2.33-3.15V52.92a1,1,0,0,0-2,0v1.23a3.32,3.32,0,0,0-2.32,3.15v6.23H39V58.59a1,1,0,0,0-1-1H33.34a1,1,0,0,0-1,1v4.94h-1V48.4H47.89V63.53Zm.88-20.92H44.58a2.46,2.46,0,0,0,0-1.42A2.63,2.63,0,0,0,43.79,36H37.16a2.62,2.62,0,0,0-2.51,3.41,2.62,2.62,0,0,0-1.81,3.17H31.3V31.84H47.89Zm0-16.56h-.46a5.19,5.19,0,0,0-7.31-4,5.18,5.18,0,0,0-7.3,4H31.3v-8H47.89ZM29.3,78.23a1,1,0,0,0,1,1H48.89a1,1,0,0,0,1-1V18.06h1.57V80.25a.55.55,0,0,1-.58.55H28.28a.55.55,0,0,1-.55-.55V18.06H29.3ZM50.9,2a.56.56,0,0,1,.56.55V16.06H27.73V2.55A.55.55,0,0,1,28.28,2ZM2,2.55A.55.55,0,0,1,2.55,2H25.18a.55.55,0,0,1,.55.55v77.7a.55.55,0,0,1-.55.55H2.55A.55.55,0,0,1,2,80.25ZM6.49,94H2V92.33H6.49Zm45,0H47V92.33h4.49ZM77.18,80.25a.55.55,0,0,1-.55.55H54a.55.55,0,0,1-.55-.55V2.55A.55.55,0,0,1,54,2H76.63a.55.55,0,0,1,.55.55Z"/><path class="cls-1" d="M74.62,3.57H56a1,1,0,0,0-1,1V78.23a1,1,0,0,0,1,1H74.62a1,1,0,0,0,1-1V4.57A1,1,0,0,0,74.62,3.57ZM57,13.56H73.62v1.79H57Zm16.59,3.79v8.7H72.15V21.31a1,1,0,0,0-1-1H66.94a1,1,0,0,0-1,1v4.74H64.51V21.31a1,1,0,0,0-1-1H59.3a1,1,0,0,0-1,1v4.74H57v-8.7ZM57,44.22H73.62V46H57Zm6.16-2.81a1.9,1.9,0,1,1,0-2.18A3.85,3.85,0,0,0,63.19,41.41Zm2.19-2.18a1.91,1.91,0,1,1,0,2.18A1.88,1.88,0,0,1,65.38,39.23Zm5,3a3.89,3.89,0,0,0-3.39-5.81,3.85,3.85,0,0,0-2.65,1.06,3.84,3.84,0,0,0-2.66-1.06,3.89,3.89,0,0,0-3.38,5.81H57V31.84H73.62V42.22Zm3.29-12.38H57V28.05H73.62ZM62.51,26.05H60.3V22.31h2.21Zm7.64,0H67.94V22.31h2.21ZM57,48H73.62V63.53H57ZM73.62,5.57v6H57v-6Zm0,71.66H57V65.53H73.62Z"/><path class="cls-1" d="M6.61,25.13H21.12A1.86,1.86,0,0,0,23,23.27V8.77a1.85,1.85,0,0,0-1.85-1.85H6.61A1.85,1.85,0,0,0,4.76,8.77v14.5A1.86,1.86,0,0,0,6.61,25.13ZM6.76,8.92H21V23.13H6.76Z"/><path class="cls-1" d="M19.42,35.35a1.83,1.83,0,0,0-1.82,1.83v21.6a1.82,1.82,0,0,0,1.82,1.82h2.32a1.81,1.81,0,0,0,1.82-1.82V37.18a1.82,1.82,0,0,0-1.82-1.83ZM21.56,58.6h-2V37.35h2Z"/><path class="cls-1" d="M30.3,14.49H48.89a1,1,0,0,0,1-1V4.57a1,1,0,0,0-1-1H30.3a1,1,0,0,0-1,1v8.92A1,1,0,0,0,30.3,14.49Zm1-8.92H47.89v6.92H31.3Z"/><path class="cls-1" d="M60.56,70.46h9.52a1,1,0,0,0,0-2H60.56a1,1,0,1,0,0,2Z"/><path class="cls-1" d="M42.16,7.6H37a1,1,0,0,0,0,2h5.14a1,1,0,0,0,0-2Z"/><path class="cls-1" d="M15.77,13.53a1,1,0,0,0-1.41,0L11.6,16.28l-1.45-1.45a1,1,0,0,0-1.41,0,1,1,0,0,0,0,1.42l2.15,2.15a1,1,0,0,0,1.42,0l2.75-2.75,2.09,2.09a1,1,0,0,0,1.42,0,1,1,0,0,0,0-1.41Z"/></g></g></svg>